<svg width="134" height="113" viewBox="0 0 134 113" fill="none" xmlns="http://www.w3.org/2000/svg">
<rect width="80" height="80" transform="matrix(0.829026 -0.55921 0.829026 0.55921 1 67.5367)" fill="#212121"/>
<rect x="4.14513" width="75" height="75" transform="matrix(0.829026 -0.55921 0.829026 0.55921 1.381 47.5858)" stroke="#01ABF3" stroke-width="5"/>
<path d="M82.4162 62.0747C83.0889 62.5285 83.9859 62.5285 84.6586 62.0747L102.597 49.9743C103.27 49.5205 103.27 48.9155 102.597 48.4617L99.2339 46.1929C98.5612 45.7391 97.6642 45.7391 96.9915 46.1929L88.0221 52.2431L79.0527 58.2933C78.38 58.7471 78.38 59.3521 79.0527 59.8059L82.4162 62.0747ZM60.5532 63.0579L60.5532 72.4357C60.5532 73.192 61.3381 73.7214 62.3471 73.6458L66.3834 73.6458C67.5045 73.6458 68.2894 73.1164 68.1773 72.4357L68.1773 59.1252C68.1996 58.9626 68.1685 58.7986 68.0862 58.6449C68.004 58.4913 67.8725 58.3518 67.7013 58.2362C67.53 58.1207 67.3232 58.0321 67.0954 57.9766C66.8676 57.9211 66.6245 57.9001 66.3834 57.9152L46.6506 57.9152C45.7537 57.9152 44.8568 58.5202 44.8568 59.1252L44.8568 61.8478C44.7446 62.5285 45.5295 63.0579 46.6506 63.0579L60.5532 63.0579Z" fill="#01ABF3"/>
</svg>
